# xmcd CD database file
# Copyright (C) 1993-1998 Ti Kan
# 
# Track frame offsets:
#     150
#     12985
#     22787
#     33565
#     43222
#     52477
#     64220
#     78192
#     88625
#     100682
#     113402
#     123260
#     135535
#     144460
#     153082
#     162672
#     172042
#     181395
#     190792
#     199422
# 
# Disc length: 2775 seconds
# 
# Revision: 1
# Processed by: cddbd v1.4b41PL1 Copyright (c) Steve Scherf et al.
# Submitted via: DiscPlay 4.0.4
# 
DISCID=0f0ad514
DTITLE=Buddy Holly - Buddy Holly Love Songs
DYEAR=1900
DGENRE=
TTITLE0=True Love Ways
TTITLE1=Everyday
TTITLE2=Listen To Me
TTITLE3=You've Got Love
TTITLE4=Earning The Game
TTITLE5=Send Me Some Lovin'
TTITLE6=Love Is Strange
TTITLE7=That's What They Say
TTITLE8=Because I Love You
TTITLE9=Raining In My Heart
TTITLE10=Heartbeat
TTITLE11=Moondreams
TTITLE12=Take Your Time
TTITLE13=Dearest
TTITLE14=Look At Me
TTITLE15=You're The One
TTITLE16=Wishing
TTITLE17=It Doesn't Matter Anymore
TTITLE18=What To Do
TTITLE19=Words Of love
EXTD=
EXTT0=
EXTT1=
EXTT2=
EXTT3=
EXTT4=
EXTT5=
EXTT6=
EXTT7=
EXTT8=
EXTT9=
EXTT10=
EXTT11=
EXTT12=
EXTT13=
EXTT14=
EXTT15=
EXTT16=
EXTT17=
EXTT18=
EXTT19=
PLAYORDER=
